<svg width="1920" height="696" viewBox="0 0 1920 696" fill="none" xmlns="http://www.w3.org/2000/svg">
<rect width="1920" height="696" fill="#F6F7FB"/>
<g clip-path="url(#clip0_6606_797)">
<path d="M1679 808.5C1679 810.17 1678.99 811.837 1678.96 813.503L1679.96 813.52C1679.9 816.862 1679.79 820.195 1679.63 823.52L1678.63 823.471C1678.46 826.787 1678.24 830.095 1677.97 833.394L1678.97 833.476C1678.69 836.806 1678.36 840.127 1677.98 843.438L1676.98 843.322C1676.6 846.622 1676.16 849.913 1675.67 853.193L1676.66 853.341C1676.17 856.639 1675.62 859.926 1675.02 863.202L1674.03 863.022C1673.43 866.29 1672.78 869.547 1672.08 872.794L1673.05 873.006C1672.35 876.261 1671.59 879.505 1670.77 882.737L1669.8 882.494C1669 885.713 1668.14 888.92 1667.22 892.116L1668.19 892.39C1667.27 895.596 1666.31 898.79 1665.29 901.973L1664.34 901.668C1663.33 904.823 1662.27 907.966 1661.16 911.097L1662.1 911.43C1660.99 914.571 1659.83 917.699 1658.62 920.815L1657.69 920.453C1656.49 923.541 1655.24 926.616 1653.95 929.68L1654.87 930.069C1653.57 933.132 1652.23 936.181 1650.84 939.218L1649.93 938.802C1648.55 941.82 1647.12 944.826 1645.64 947.819L1646.54 948.262C1645.08 951.236 1643.56 954.197 1642.01 957.145L1641.12 956.678C1639.57 959.618 1637.97 962.544 1636.33 965.457L1637.2 965.948C1635.58 968.834 1633.91 971.707 1632.19 974.567L1631.34 974.053C1629.63 976.897 1627.89 979.728 1626.1 982.544L1626.94 983.081C1625.16 985.888 1623.33 988.682 1621.47 991.462L1620.64 990.905C1618.79 993.649 1616.91 996.379 1614.99 999.095L1615.81 999.672C1613.88 1002.39 1611.91 1005.1 1609.91 1007.8L1609.11 1007.2C1607.14 1009.85 1605.13 1012.48 1603.08 1015.1L1603.87 1015.72C1601.82 1018.33 1599.74 1020.94 1597.62 1023.53L1596.84 1022.89C1594.74 1025.46 1592.6 1028.02 1590.42 1030.56L1591.18 1031.21C1589.03 1033.72 1586.84 1036.22 1584.62 1038.7L1583.87 1038.03C1581.65 1040.51 1579.4 1042.98 1577.11 1045.43L1577.85 1046.11C1575.58 1048.53 1573.29 1050.93 1570.96 1053.33L1570.25 1052.63C1567.94 1055 1565.6 1057.36 1563.22 1059.7L1563.92 1060.41C1561.55 1062.76 1559.14 1065.09 1556.7 1067.41L1556.01 1066.68C1553.62 1068.95 1551.2 1071.2 1548.75 1073.44L1549.42 1074.18C1546.97 1076.42 1544.49 1078.65 1541.97 1080.87L1541.31 1080.12C1538.82 1082.31 1536.29 1084.49 1533.74 1086.65L1534.39 1087.42C1531.87 1089.56 1529.32 1091.68 1526.74 1093.79L1526.1 1093.02C1523.53 1095.13 1520.93 1097.22 1518.3 1099.29L1518.92 1100.08C1516.32 1102.14 1513.69 1104.18 1511.03 1106.2L1510.42 1105.41C1507.79 1107.42 1505.14 1109.41 1502.46 1111.38L1503.05 1112.19C1500.36 1114.17 1497.65 1116.14 1494.91 1118.09L1494.33 1117.27C1491.64 1119.19 1488.93 1121.09 1486.19 1122.98L1486.75 1123.8C1484.02 1125.69 1481.27 1127.55 1478.49 1129.41L1477.93 1128.57C1475.16 1130.42 1472.36 1132.26 1469.53 1134.08L1470.08 1134.92C1467.3 1136.71 1464.5 1138.49 1461.68 1140.25L1461.15 1139.4C1458.33 1141.16 1455.5 1142.9 1452.64 1144.62L1453.16 1145.48C1450.3 1147.21 1447.42 1148.92 1444.51 1150.62L1444.01 1149.75C1441.16 1151.42 1438.29 1153.07 1435.4 1154.71L1435.89 1155.58C1433 1157.21 1430.09 1158.83 1427.16 1160.44L1426.68 1159.56C1423.75 1161.17 1420.81 1162.76 1417.84 1164.33L1418.31 1165.22C1415.39 1166.77 1412.45 1168.3 1409.5 1169.82L1409.04 1168.93C1406.09 1170.45 1403.12 1171.95 1400.13 1173.44L1400.58 1174.33C1397.59 1175.82 1394.58 1177.29 1391.55 1178.75L1391.11 1177.85C1388.14 1179.28 1385.15 1180.7 1382.13 1182.11L1382.56 1183.01C1379.55 1184.42 1376.52 1185.81 1373.48 1187.18L1373.07 1186.27C1370.03 1187.64 1366.97 1189 1363.89 1190.34L1364.29 1191.26C1361.26 1192.58 1358.21 1193.89 1355.14 1195.19L1354.75 1194.27C1351.7 1195.56 1348.63 1196.83 1345.54 1198.09L1345.92 1199.02C1342.83 1200.28 1339.73 1201.53 1336.6 1202.76L1336.24 1201.83C1333.15 1203.05 1330.06 1204.25 1326.94 1205.44L1327.3 1206.38C1324.2 1207.56 1321.09 1208.73 1317.96 1209.88L1317.62 1208.94C1314.49 1210.09 1311.35 1211.23 1308.2 1212.35L1308.53 1213.3C1305.4 1214.41 1302.25 1215.51 1299.09 1216.6L1298.76 1215.65C1295.63 1216.73 1292.49 1217.79 1289.33 1218.84L1289.65 1219.79C1286.49 1220.83 1283.31 1221.87 1280.13 1222.88L1279.82 1221.93C1276.65 1222.95 1273.46 1223.95 1270.25 1224.93L1270.55 1225.89C1267.39 1226.86 1264.21 1227.82 1261.02 1228.76L1260.74 1227.8C1257.55 1228.75 1254.35 1229.67 1251.14 1230.59L1251.42 1231.55C1248.21 1232.46 1244.98 1233.36 1241.74 1234.25L1241.48 1233.29C1238.29 1234.16 1235.08 1235.02 1231.87 1235.86L1232.12 1236.83C1228.91 1237.67 1225.68 1238.5 1222.45 1239.31L1222.21 1238.34C1218.98 1239.16 1215.73 1239.95 1212.48 1240.74L1212.71 1241.71C1209.48 1242.49 1206.23 1243.25 1202.98 1244L1202.75 1243.03C1199.53 1243.77 1196.29 1244.5 1193.04 1245.21L1193.25 1246.19C1190 1246.91 1186.74 1247.61 1183.47 1248.29L1183.26 1247.31C1179.99 1248 1176.72 1248.67 1173.43 1249.32L1173.62 1250.3C1170.38 1250.95 1167.12 1251.58 1163.86 1252.2L1163.67 1251.22C1160.41 1251.84 1157.14 1252.44 1153.86 1253.03L1154.03 1254.01C1150.75 1254.6 1147.45 1255.17 1144.15 1255.73L1143.98 1254.75C1140.71 1255.3 1137.42 1255.84 1134.13 1256.37L1134.29 1257.36C1131.01 1257.88 1127.73 1258.39 1124.44 1258.88L1124.29 1257.89C1121 1258.39 1117.7 1258.87 1114.39 1259.33L1114.53 1260.32C1111.22 1260.79 1107.9 1261.24 1104.58 1261.67L1104.45 1260.68C1101.17 1261.11 1097.88 1261.53 1094.58 1261.93L1094.7 1262.92C1091.4 1263.32 1088.1 1263.71 1084.78 1264.08L1084.67 1263.09C1081.36 1263.46 1078.04 1263.81 1074.71 1264.16L1074.81 1265.15C1071.5 1265.49 1068.18 1265.82 1064.86 1266.13L1064.77 1265.13C1061.47 1265.44 1058.16 1265.74 1054.84 1266.02L1054.93 1267.02C1051.61 1267.3 1048.29 1267.56 1044.96 1267.81L1044.88 1266.82C1041.55 1267.07 1038.22 1267.31 1034.87 1267.53L1034.94 1268.52C1031.63 1268.74 1028.32 1268.95 1024.99 1269.14L1024.94 1268.14C1021.62 1268.33 1018.3 1268.51 1014.98 1268.67L1015.03 1269.67C1011.7 1269.83 1008.36 1269.98 1005.02 1270.11L1004.98 1269.11C1001.65 1269.24 998.312 1269.36 994.969 1269.46L995 1270.46C991.687 1270.57 988.367 1270.65 985.042 1270.73L985.02 1269.73C981.698 1269.8 978.37 1269.86 975.037 1269.9L975.05 1270.9C971.714 1270.94 968.372 1270.97 965.024 1270.99L965.02 1269.99C963.348 1270 961.675 1270 960 1270C958.325 1270 956.651 1270 954.979 1269.99L954.975 1270.99C951.628 1270.97 948.286 1270.94 944.949 1270.9L944.962 1269.9C941.629 1269.86 938.301 1269.8 934.979 1269.73L934.957 1270.73C931.632 1270.65 928.313 1270.56 924.999 1270.46L925.03 1269.46C921.687 1269.36 918.351 1269.24 915.02 1269.11L914.98 1270.11C911.638 1269.98 908.303 1269.83 904.973 1269.67L905.022 1268.67C901.696 1268.51 898.376 1268.33 895.062 1268.14L895.005 1269.14C891.682 1268.95 888.367 1268.74 885.058 1268.52L885.124 1267.53C881.782 1267.31 878.447 1267.07 875.119 1266.82L875.043 1267.81C871.712 1267.56 868.388 1267.3 865.071 1267.02L865.155 1266.02C861.841 1265.74 858.534 1265.44 855.234 1265.13L855.141 1266.13C851.815 1265.82 848.498 1265.49 845.188 1265.15L845.29 1264.16C841.963 1263.81 838.642 1263.46 835.33 1263.09L835.219 1264.08C831.903 1263.71 828.596 1263.32 825.296 1262.92L825.417 1261.93C822.12 1261.53 818.832 1261.11 815.551 1260.68L815.421 1261.67C812.096 1261.24 808.779 1260.79 805.471 1260.32L805.61 1259.33C802.302 1258.87 799.003 1258.39 795.712 1257.89L795.564 1258.88C792.27 1258.39 788.985 1257.88 785.709 1257.36L785.867 1256.37C782.575 1255.84 779.291 1255.3 776.017 1254.75L775.85 1255.73C772.547 1255.17 769.253 1254.6 765.968 1254.01L766.144 1253.03C762.863 1252.44 759.591 1251.84 756.328 1251.22L756.142 1252.2C752.877 1251.58 749.621 1250.95 746.375 1250.3L746.57 1249.32C743.283 1248.67 740.005 1248 736.738 1247.31L736.533 1248.29C733.26 1247.61 729.998 1246.91 726.746 1246.19L726.961 1245.21C723.712 1244.5 720.474 1243.77 717.247 1243.03L717.023 1244C713.766 1243.25 710.521 1242.49 707.287 1241.71L707.521 1240.74C704.267 1239.95 701.024 1239.16 697.793 1238.34L697.549 1239.31C694.315 1238.5 691.092 1237.67 687.88 1236.83L688.134 1235.86C684.918 1235.02 681.714 1234.16 678.521 1233.28L678.258 1234.25C675.02 1233.36 671.794 1232.46 668.581 1231.55L668.855 1230.59C665.645 1229.67 662.447 1228.75 659.262 1227.8L658.978 1228.76C655.79 1227.82 652.614 1226.86 649.451 1225.89L649.745 1224.93C646.543 1223.95 643.354 1222.95 640.179 1221.93L639.874 1222.88C636.687 1221.87 633.513 1220.83 630.352 1219.79L630.667 1218.84C627.509 1217.79 624.366 1216.73 621.236 1215.65L620.911 1216.6C617.749 1215.51 614.6 1214.41 611.466 1213.3L611.801 1212.35C608.648 1211.23 605.509 1210.09 602.384 1208.94L602.038 1209.88C598.911 1208.73 595.798 1207.56 592.699 1206.38L593.056 1205.44C589.943 1204.25 586.845 1203.05 583.762 1201.83L583.395 1202.76C580.274 1201.53 577.169 1200.28 574.079 1199.02L574.458 1198.09C571.372 1196.83 568.302 1195.56 565.249 1194.27L564.86 1195.19C561.793 1193.89 558.742 1192.58 555.707 1191.26L556.107 1190.34C553.032 1189 549.975 1187.64 546.934 1186.27L546.523 1187.18C543.478 1185.81 540.451 1184.42 537.442 1183.01L537.865 1182.11C534.855 1180.7 531.862 1179.28 528.887 1177.85L528.453 1178.75C525.424 1177.29 522.413 1175.82 519.421 1174.33L519.867 1173.43C516.879 1171.95 513.91 1170.45 510.96 1168.93L510.502 1169.82C507.546 1168.3 504.609 1166.77 501.691 1165.22L502.16 1164.33C499.193 1162.76 496.245 1161.17 493.318 1159.56L492.837 1160.44C489.906 1158.83 486.995 1157.21 484.105 1155.58L484.598 1154.71C481.709 1153.07 478.841 1151.42 475.994 1149.75L475.489 1150.62C472.584 1148.92 469.702 1147.21 466.841 1145.48L467.358 1144.62C464.501 1142.9 461.666 1141.16 458.854 1139.4L458.325 1140.25C455.502 1138.49 452.701 1136.71 449.923 1134.92L450.465 1134.08C447.643 1132.26 444.843 1130.42 442.068 1128.57L441.513 1129.41C438.734 1127.55 435.978 1125.69 433.246 1123.8L433.814 1122.98C431.073 1121.09 428.357 1119.19 425.666 1117.27L425.085 1118.09C422.348 1116.14 419.636 1114.17 416.95 1112.19L417.544 1111.38C414.862 1109.41 412.206 1107.42 409.577 1105.41L408.97 1106.2C406.313 1104.18 403.683 1102.14 401.08 1100.08L401.7 1099.29C399.07 1097.22 396.469 1095.13 393.895 1093.02L393.261 1093.79C390.683 1091.68 388.133 1089.56 385.611 1087.42L386.258 1086.65C383.706 1084.49 381.183 1082.31 378.69 1080.12L378.03 1080.87C375.515 1078.65 373.029 1076.42 370.575 1074.18L371.249 1073.44C368.799 1071.2 366.379 1068.95 363.99 1066.68L363.301 1067.41C360.861 1065.09 358.452 1062.76 356.076 1060.41L356.778 1059.7C354.404 1057.36 352.063 1055 349.754 1052.63L349.037 1053.33C346.71 1050.93 344.415 1048.53 342.155 1046.11L342.885 1045.43C340.598 1042.98 338.345 1040.51 336.127 1038.03L335.382 1038.7C333.159 1036.22 330.971 1033.72 328.818 1031.21L329.577 1030.56C327.401 1028.02 325.26 1025.46 323.156 1022.89L322.382 1023.53C320.262 1020.94 318.178 1018.33 316.132 1015.72L316.92 1015.1C314.873 1012.48 312.864 1009.85 310.893 1007.2L310.091 1007.8C308.085 1005.1 306.119 1002.39 304.193 999.672L305.009 999.094C303.087 996.378 301.205 993.648 299.363 990.905L298.533 991.462C296.667 988.682 294.842 985.888 293.059 983.08L293.903 982.544C292.115 979.727 290.368 976.896 288.664 974.052L287.806 974.566C286.093 971.707 284.423 968.834 282.796 965.947L283.668 965.456C282.026 962.544 280.429 959.617 278.876 956.677L277.992 957.144C276.436 954.196 274.924 951.235 273.458 948.261L274.355 947.819C272.88 944.826 271.451 941.82 270.069 938.801L269.159 939.217C267.769 936.181 266.426 933.131 265.131 930.068L266.052 929.679C264.756 926.616 263.508 923.54 262.309 920.452L261.377 920.814C260.167 917.698 259.006 914.57 257.895 911.429L258.838 911.096C257.73 907.965 256.672 904.822 255.664 901.667L254.711 901.972C253.695 898.79 252.729 895.595 251.814 892.39L252.776 892.115C251.864 888.919 251.004 885.712 250.196 882.493L249.226 882.737C248.414 879.504 247.654 876.26 246.947 873.005L247.924 872.793C247.219 869.546 246.566 866.289 245.967 863.021L244.983 863.201C244.382 859.925 243.834 856.638 243.341 853.341L244.33 853.192C243.838 849.912 243.4 846.622 243.017 843.322L242.023 843.437C241.638 840.126 241.308 836.805 241.032 833.475L242.028 833.393C241.755 830.094 241.536 826.786 241.371 823.47L240.372 823.519C240.207 820.195 240.097 816.861 240.042 813.519L241.041 813.502C241.014 811.837 241 810.169 241 808.5C241 806.752 241.015 805.007 241.045 803.263L240.046 803.246C240.106 799.736 240.228 796.235 240.41 792.744L241.409 792.796C241.591 789.304 241.833 785.821 242.135 782.349L241.139 782.262C241.443 778.768 241.808 775.284 242.232 771.811L243.225 771.932C243.649 768.464 244.132 765.006 244.675 761.56L243.687 761.404C244.232 757.943 244.836 754.492 245.5 751.054L246.481 751.243C247.143 747.815 247.862 744.399 248.64 740.994L247.665 740.772C248.445 737.358 249.283 733.957 250.178 730.569L251.145 730.824C251.59 729.137 252.05 727.452 252.525 725.771C252.972 724.184 253.433 722.599 253.906 721.017L252.948 720.73C253.897 717.556 254.897 714.393 255.947 711.243L256.895 711.559C257.939 708.426 259.033 705.304 260.175 702.195L259.237 701.85C260.378 698.744 261.568 695.65 262.806 692.568L263.734 692.941C264.966 689.875 266.246 686.822 267.573 683.782L266.656 683.382C267.978 680.353 269.347 677.336 270.762 674.333L271.666 674.759C273.076 671.768 274.531 668.789 276.032 665.824L275.14 665.372C276.63 662.428 278.165 659.497 279.744 656.58L280.623 657.056C282.198 654.146 283.816 651.25 285.479 648.367L284.612 647.867C286.259 645.011 287.948 642.169 289.68 639.34L290.533 639.862C292.258 637.043 294.026 634.238 295.834 631.446L294.995 630.902C296.79 628.133 298.625 625.377 300.5 622.635L301.325 623.2C303.189 620.476 305.092 617.766 307.034 615.069L306.223 614.485C308.155 611.803 310.126 609.135 312.135 606.481L312.932 607.084C314.921 604.458 316.947 601.845 319.01 599.247L318.227 598.625C320.288 596.03 322.386 593.449 324.52 590.883L325.289 591.522C327.391 588.995 329.528 586.482 331.701 583.982L330.946 583.326C333.124 580.822 335.336 578.332 337.584 575.856L338.324 576.528C340.532 574.096 342.773 571.678 345.048 569.275L344.321 568.588C346.597 566.183 348.906 563.793 351.247 561.418L351.959 562.12C354.273 559.772 356.619 557.439 358.997 555.12L358.299 554.404C360.662 552.1 363.057 549.809 365.483 547.533L366.167 548.263C368.581 545.998 371.026 543.747 373.501 541.512L372.831 540.77C375.273 538.563 377.745 536.371 380.246 534.194L380.902 534.948C383.398 532.775 385.924 530.616 388.478 528.472L387.835 527.706C390.36 525.586 392.913 523.481 395.493 521.39L396.123 522.167C398.686 520.09 401.277 518.028 403.894 515.98L403.278 515.192C405.889 513.15 408.526 511.123 411.189 509.11L411.792 509.908C414.415 507.926 417.064 505.958 419.738 504.005L419.148 503.197C421.827 501.241 424.531 499.299 427.259 497.373L427.836 498.189C430.526 496.29 433.24 494.405 435.978 492.535L435.414 491.71C438.142 489.846 440.895 487.997 443.67 486.162L444.222 486.997C446.986 485.17 449.774 483.358 452.585 481.56L452.046 480.718C454.819 478.945 457.614 477.186 460.432 475.442L460.958 476.292C463.772 474.55 466.607 472.823 469.464 471.111L468.95 470.253C471.785 468.554 474.642 466.869 477.52 465.2L478.022 466.064C480.872 464.41 483.743 462.771 486.635 461.146L486.145 460.274C489.04 458.647 491.957 457.034 494.893 455.437L495.371 456.315C498.26 454.743 501.169 453.185 504.098 451.642L503.631 450.757C506.557 449.215 509.502 447.688 512.466 446.175L512.921 447.066C515.873 445.559 518.845 444.067 521.834 442.59L521.391 441.693C524.344 440.234 527.314 438.79 530.303 437.36L530.735 438.262C533.719 436.833 536.722 435.42 539.742 434.021L539.322 433.113C542.326 431.722 545.347 430.345 548.386 428.982L548.795 429.895C551.801 428.547 554.824 427.213 557.864 425.894L557.466 424.977C560.509 423.656 563.569 422.35 566.645 421.059L567.032 421.981C570.075 420.704 573.135 419.441 576.21 418.192L575.833 417.266C578.893 416.023 581.969 414.795 585.06 413.582L585.425 414.512C588.513 413.3 591.615 412.103 594.733 410.92L594.379 409.985C597.464 408.814 600.564 407.658 603.678 406.517L604.023 407.456C607.123 406.319 610.237 405.197 613.366 404.09L613.033 403.147C616.165 402.038 619.312 400.944 622.472 399.865L622.795 400.811C625.912 399.747 629.042 398.697 632.185 397.661L631.872 396.711C635.014 395.676 638.169 394.656 641.337 393.65L641.64 394.603C644.804 393.598 647.982 392.607 651.173 391.631L650.881 390.675C654.032 389.711 657.196 388.762 660.372 387.827L660.654 388.786C663.825 387.853 667.008 386.934 670.204 386.029L669.932 385.067C673.13 384.162 676.341 383.271 679.564 382.394L679.827 383.359C683.003 382.496 686.191 381.646 689.391 380.811L689.138 379.844C692.34 379.008 695.554 378.186 698.779 377.38L699.021 378.35C702.243 377.544 705.476 376.752 708.72 375.975L708.487 375.003C711.693 374.235 714.909 373.481 718.136 372.742L718.359 373.717C721.581 372.979 724.815 372.255 728.058 371.546L727.845 370.569C731.091 369.859 734.349 369.163 737.616 368.482L737.82 369.461C741.046 368.789 744.282 368.131 747.527 367.488L747.332 366.507C750.578 365.863 753.833 365.234 757.098 364.619L757.283 365.602C760.545 364.988 763.816 364.388 767.097 363.803L766.922 362.818C770.172 362.238 773.431 361.673 776.699 361.122L776.866 362.108C780.124 361.559 783.392 361.023 786.668 360.503L786.511 359.515C789.791 358.994 793.079 358.487 796.376 357.995L796.524 358.984C799.79 358.497 803.065 358.023 806.347 357.565L806.209 356.574C809.483 356.117 812.766 355.673 816.057 355.244L816.186 356.236C819.474 355.807 822.77 355.393 826.074 354.994L825.954 354.001C829.24 353.603 832.534 353.22 835.836 352.852L835.947 353.845C839.228 353.479 842.516 353.127 845.813 352.789L845.711 351.794C849.01 351.456 852.316 351.133 855.63 350.824L855.723 351.819C859.021 351.512 862.327 351.218 865.64 350.94L865.556 349.943C868.847 349.666 872.144 349.404 875.449 349.155L875.524 350.152C878.825 349.904 882.134 349.671 885.449 349.451L885.383 348.454C888.698 348.234 892.019 348.03 895.347 347.839L895.404 348.838C898.696 348.65 901.994 348.476 905.298 348.316L905.25 347.317C908.557 347.157 911.87 347.012 915.19 346.881L915.229 347.88C918.546 347.75 921.869 347.633 925.197 347.531L925.167 346.532C928.469 346.431 931.777 346.344 935.091 346.272L935.113 347.271C938.418 347.199 941.728 347.141 945.043 347.098L945.03 346.098C948.349 346.055 951.673 346.025 955.002 346.011L955.007 347.011C956.67 347.004 958.334 347 960 347C961.665 347 963.328 347.004 964.991 347.011L964.995 346.011C968.322 346.025 971.644 346.054 974.961 346.098L974.948 347.098C978.261 347.141 981.569 347.199 984.872 347.271L984.894 346.271C988.206 346.344 991.512 346.43 994.813 346.531L994.782 347.531C998.109 347.632 1001.43 347.749 1004.74 347.879L1004.78 346.88C1008.1 347.011 1011.41 347.156 1014.72 347.316L1014.67 348.314C1017.97 348.474 1021.27 348.648 1024.56 348.835L1024.61 347.837C1027.94 348.027 1031.26 348.232 1034.57 348.451L1034.51 349.448C1037.82 349.667 1041.13 349.901 1044.43 350.149L1044.5 349.151C1047.8 349.399 1051.1 349.662 1054.39 349.938L1054.3 350.935C1057.61 351.213 1060.92 351.506 1064.21 351.814L1064.31 350.818C1067.62 351.127 1070.92 351.45 1074.22 351.787L1074.12 352.782C1077.41 353.119 1080.7 353.471 1083.98 353.837L1084.09 352.843C1087.39 353.211 1090.68 353.594 1093.97 353.991L1093.85 354.984C1097.15 355.383 1100.44 355.797 1103.73 356.225L1103.86 355.233C1107.15 355.661 1110.43 356.104 1113.7 356.561L1113.56 357.552C1116.84 358.01 1120.11 358.483 1123.38 358.97L1123.53 357.98C1126.82 358.472 1130.11 358.978 1133.38 359.499L1133.23 360.486C1136.5 361.006 1139.77 361.541 1143.02 362.089L1143.19 361.103C1146.46 361.654 1149.71 362.218 1152.96 362.797L1152.79 363.782C1156.07 364.366 1159.34 364.965 1162.6 365.579L1162.78 364.596C1166.04 365.21 1169.3 365.839 1172.54 366.482L1172.35 367.462C1175.59 368.105 1178.82 368.762 1182.05 369.434L1182.25 368.455C1185.52 369.135 1188.77 369.83 1192.02 370.539L1191.8 371.516C1195.05 372.224 1198.28 372.947 1201.5 373.684L1201.72 372.709C1204.95 373.447 1208.16 374.2 1211.36 374.967L1211.13 375.939C1214.37 376.715 1217.6 377.506 1220.82 378.311L1221.07 377.341C1224.29 378.147 1227.5 378.967 1230.7 379.802L1230.45 380.769C1233.65 381.603 1236.83 382.452 1240.01 383.314L1240.27 382.349C1243.49 383.224 1246.7 384.114 1249.9 385.019L1249.63 385.981C1252.82 386.884 1256 387.802 1259.17 388.734L1259.45 387.775C1262.63 388.709 1265.79 389.657 1268.94 390.62L1268.65 391.576C1271.83 392.551 1275.01 393.54 1278.17 394.543L1278.48 393.59C1281.64 394.595 1284.8 395.614 1287.94 396.648L1287.62 397.598C1290.76 398.632 1293.89 399.681 1297.01 400.744L1297.33 399.798C1300.49 400.876 1303.63 401.968 1306.77 403.076L1306.43 404.018C1309.56 405.124 1312.67 406.245 1315.77 407.38L1316.11 406.441C1319.23 407.581 1322.33 408.736 1325.41 409.905L1325.06 410.84C1328.17 412.021 1331.27 413.217 1334.36 414.428L1334.72 413.497C1337.81 414.709 1340.89 415.935 1343.95 417.176L1343.57 418.102C1346.64 419.349 1349.7 420.611 1352.74 421.887L1353.13 420.965C1356.2 422.254 1359.26 423.559 1362.3 424.877L1361.91 425.795C1364.94 427.112 1367.97 428.444 1370.97 429.79L1371.38 428.877C1374.42 430.238 1377.44 431.613 1380.44 433.003L1380.02 433.911C1383.04 435.308 1386.04 436.72 1389.02 438.146L1389.45 437.244C1392.44 438.672 1395.41 440.114 1398.36 441.571L1397.92 442.468C1400.91 443.943 1403.88 445.434 1406.83 446.938L1407.28 446.048C1410.25 447.558 1413.19 449.084 1416.11 450.623L1415.65 451.508C1418.58 453.05 1421.48 454.605 1424.37 456.176L1424.85 455.297C1427.79 456.892 1430.7 458.503 1433.59 460.128L1433.11 461C1436 462.623 1438.87 464.26 1441.71 465.912L1442.22 465.046C1445.09 466.714 1447.95 468.396 1450.78 470.093L1450.27 470.951C1453.13 472.661 1455.96 474.386 1458.77 476.125L1459.3 475.275C1462.12 477.017 1464.91 478.773 1467.68 480.544L1467.14 481.386C1469.95 483.181 1472.74 484.991 1475.5 486.816L1476.06 485.981C1478.83 487.813 1481.58 489.659 1484.31 491.52L1483.75 492.347C1486.48 494.214 1489.2 496.096 1491.89 497.993L1492.46 497.176C1495.19 499.1 1497.89 501.039 1500.57 502.993L1499.98 503.801C1502.66 505.751 1505.3 507.716 1507.93 509.695L1508.53 508.897C1511.19 510.907 1513.83 512.932 1516.44 514.971L1515.82 515.759C1518.44 517.804 1521.03 519.863 1523.59 521.937L1524.22 521.16C1526.8 523.248 1529.36 525.351 1531.88 527.468L1531.24 528.234C1533.79 530.375 1536.32 532.531 1538.81 534.701L1539.47 533.946C1541.97 536.121 1544.44 538.309 1546.88 540.513L1546.21 541.255C1548.69 543.488 1551.14 545.735 1553.55 547.997L1554.23 547.267C1556.66 549.54 1559.05 551.827 1561.42 554.128L1560.72 554.845C1563.1 557.16 1565.45 559.49 1567.76 561.835L1568.47 561.132C1570.81 563.504 1573.12 565.891 1575.4 568.292L1574.67 568.98C1576.95 571.38 1579.19 573.794 1581.4 576.223L1582.14 575.55C1584.39 578.022 1586.6 580.509 1588.78 583.01L1588.02 583.667C1590.2 586.162 1592.34 588.672 1594.44 591.196L1595.21 590.556C1597.34 593.118 1599.44 595.696 1601.5 598.287L1600.72 598.91C1602.79 601.505 1604.81 604.113 1606.8 606.736L1607.6 606.132C1609.61 608.782 1611.58 611.447 1613.52 614.125L1612.71 614.711C1614.65 617.403 1616.56 620.109 1618.42 622.83L1619.25 622.264C1621.12 625.002 1622.96 627.754 1624.76 630.52L1623.92 631.065C1625.73 633.852 1627.5 636.654 1629.23 639.469L1630.08 638.946C1631.81 641.771 1633.5 644.61 1635.15 647.462L1634.29 647.962C1635.95 650.842 1637.57 653.734 1639.15 656.64L1640.03 656.163C1641.61 659.077 1643.15 662.004 1644.64 664.944L1643.75 665.397C1645.26 668.359 1646.71 671.333 1648.13 674.321L1649.03 673.894C1650.45 676.893 1651.82 679.906 1653.15 682.931L1652.23 683.332C1653.56 686.369 1654.84 689.419 1656.08 692.48L1657.01 692.106C1658.25 695.184 1659.44 698.275 1660.59 701.377L1659.65 701.724C1660.8 704.829 1661.9 707.947 1662.94 711.077L1663.89 710.759C1664.95 713.906 1665.95 717.065 1666.9 720.236L1665.95 720.524C1666.42 722.104 1666.88 723.687 1667.33 725.273C1667.81 726.964 1668.28 728.658 1668.73 730.355L1669.7 730.098C1670.6 733.506 1671.45 736.927 1672.24 740.36L1671.27 740.584C1672.05 744.009 1672.78 747.445 1673.45 750.894L1674.43 750.703C1675.1 754.162 1675.72 757.633 1676.27 761.116L1675.28 761.272C1675.83 764.739 1676.32 768.218 1676.75 771.707L1677.74 771.585C1678.17 775.079 1678.54 778.585 1678.85 782.1L1677.85 782.187C1678.16 785.681 1678.4 789.185 1678.59 792.699L1679.58 792.647C1679.77 796.159 1679.89 799.682 1679.95 803.214L1678.95 803.231C1678.98 804.985 1679 806.741 1679 808.5Z" stroke="#FFA99C" stroke-width="2" stroke-dasharray="10 10"/>
</g>
<defs>
<clipPath id="clip0_6606_797">
<rect width="1440" height="350" fill="white" transform="translate(240 346)"/>
</clipPath>
</defs>
</svg>
