<svg width="13" height="13" viewBox="0 0 13 13" fill="none" xmlns="http://www.w3.org/2000/svg">
<path opacity="0.5" d="M6.51451 3.14844C4.65737 3.14844 3.17746 4.65737 3.17746 6.48549C3.17746 8.34263 4.65737 9.82255 6.51451 9.82255C8.34263 9.82255 9.85156 8.34263 9.85156 6.48549C9.85156 4.65737 8.34263 3.14844 6.51451 3.14844ZM6.51451 8.66183C5.32478 8.66183 4.33817 7.70424 4.33817 6.48549C4.33817 5.29576 5.29576 4.33817 6.51451 4.33817C7.70424 4.33817 8.66183 5.29576 8.66183 6.48549C8.66183 7.70424 7.70424 8.66183 6.51451 8.66183ZM10.7511 3.03237C10.7511 2.5971 10.4029 2.24888 9.96763 2.24888C9.53237 2.24888 9.18415 2.5971 9.18415 3.03237C9.18415 3.46763 9.53237 3.81585 9.96763 3.81585C10.4029 3.81585 10.7511 3.46763 10.7511 3.03237ZM12.9565 3.81585C12.8984 2.77121 12.6663 1.84263 11.9118 1.08817C11.1574 0.333705 10.2288 0.101563 9.18415 0.0435268C8.11049 -0.0145089 4.88951 -0.0145089 3.81585 0.0435268C2.77121 0.101563 1.87165 0.333705 1.08817 1.08817C0.333705 1.84263 0.101563 2.77121 0.0435268 3.81585C-0.0145089 4.88951 -0.0145089 8.11049 0.0435268 9.18415C0.101563 10.2288 0.333705 11.1283 1.08817 11.9118C1.87165 12.6663 2.77121 12.8984 3.81585 12.9565C4.88951 13.0145 8.11049 13.0145 9.18415 12.9565C10.2288 12.8984 11.1574 12.6663 11.9118 11.9118C12.6663 11.1283 12.8984 10.2288 12.9565 9.18415C13.0145 8.11049 13.0145 4.88951 12.9565 3.81585ZM11.5636 10.3158C11.3605 10.8962 10.8962 11.3315 10.3449 11.5636C9.47433 11.9118 7.44308 11.8248 6.51451 11.8248C5.55692 11.8248 3.52567 11.9118 2.68415 11.5636C2.10379 11.3315 1.66853 10.8962 1.43638 10.3158C1.08817 9.47433 1.17522 7.44308 1.17522 6.48549C1.17522 5.55692 1.08817 3.52567 1.43638 2.65513C1.66853 2.10379 2.10379 1.66853 2.68415 1.43638C3.52567 1.08817 5.55692 1.17522 6.51451 1.17522C7.44308 1.17522 9.47433 1.08817 10.3449 1.43638C10.8962 1.63951 11.3315 2.10379 11.5636 2.65513C11.9118 3.52567 11.8248 5.55692 11.8248 6.48549C11.8248 7.44308 11.9118 9.47433 11.5636 10.3158Z" fill="#7B8099"/>
</svg>
