<svg width="11" height="15" viewBox="0 0 11 15" fill="none" xmlns="http://www.w3.org/2000/svg">
<path opacity="0.5" d="M5.84375 0C2.89323 0 0 2.0428 0 5.37738C0 7.48027 1.11719 8.68192 1.80469 8.68192C2.09115 8.68192 2.26302 7.8708 2.26302 7.63047C2.26302 7.3601 1.57552 6.75928 1.57552 5.58767C1.57552 3.18437 3.32292 1.47202 5.58594 1.47202C7.5625 1.47202 8.99479 2.64363 8.99479 4.77656C8.99479 6.36874 8.39323 9.34282 6.41667 9.34282C5.70052 9.34282 5.07031 8.80208 5.07031 8.05105C5.07031 6.90948 5.84375 5.79796 5.84375 4.62635C5.84375 2.64363 3.15104 3.00412 3.15104 5.40742C3.15104 5.91812 3.20833 6.45887 3.4375 6.93953C3.03646 8.71196 2.23438 11.3856 2.23438 13.2181C2.23438 13.7889 2.29167 14.3297 2.34896 14.9005C2.4349 15.0206 2.40625 15.0206 2.54948 14.9605C3.98177 12.8877 3.95313 12.4671 4.58333 9.7634C4.95573 10.4543 5.84375 10.8449 6.58854 10.8449C9.625 10.8449 11 7.7206 11 4.92676C11 1.95268 8.53646 0 5.84375 0Z" fill="#7B8099"/>
</svg>
