<svg width="50" height="43" viewBox="0 0 50 43" fill="none" xmlns="http://www.w3.org/2000/svg">
<g opacity="0.1">
<path d="M16.2592 0.492639C17.4817 -0.310176 18.5819 -0.131772 19.5599 1.02785C20.6194 2.18747 20.6601 3.3471 19.6821 4.50672C17.2372 7.18277 15.5257 9.32361 14.5477 10.9292C13.5697 12.5349 12.9584 14.2743 12.7139 16.1475C12.4694 17.8424 12.9177 18.6898 14.0587 18.6898C16.2592 18.6898 18.1336 19.7156 19.6821 21.7672C21.2306 23.8189 22.0049 26.4503 22.0049 29.6616C22.0049 33.4081 21.0269 36.4409 19.0709 38.7602C17.1149 40.9902 14.5069 42.1052 11.2469 42.1052C8.14995 42.1052 5.50121 40.8564 3.30072 38.3588C1.10024 35.7719 -5.64629e-06 32.293 -4.88207e-06 27.9222C-2.99489e-06 17.1288 5.41972 7.98558 16.2592 0.492639ZM44.3765 0.492644C45.599 -0.310171 46.6992 -0.131767 47.6772 1.02786C48.7367 2.18748 48.7367 3.3471 47.6772 4.50673C45.2322 7.18277 43.5208 9.32361 42.5428 10.9292C41.5648 12.5349 40.9943 14.2743 40.8313 16.1475C40.5868 17.8424 41.035 18.6898 42.176 18.6898C44.3765 18.6898 46.2102 19.7156 47.6772 21.7673C49.2257 23.8189 50 26.4503 50 29.6616C50 33.4081 49.022 36.4409 47.066 38.7602C45.11 40.9902 42.5428 42.1052 39.3643 42.1052C36.1858 42.1052 33.4963 40.8564 31.2958 38.3588C29.1768 35.7719 28.1173 32.293 28.1173 27.9222C28.1173 17.1288 33.5371 7.98558 44.3765 0.492644Z" fill="#2878F0"/>
</g>
</svg>
