<svg width="14" height="13" viewBox="0 0 14 13" fill="none" xmlns="http://www.w3.org/2000/svg">
<path opacity="0.2" d="M13.4562 4.24455L9.56467 3.69461L7.82505 0.26529C7.77754 0.171397 7.69937 0.0953886 7.60281 0.0491874C7.36065 -0.0670607 7.06637 0.0298127 6.94529 0.26529L5.20568 3.69461L1.31416 4.24455C1.20687 4.25946 1.10878 4.30864 1.03368 4.38316C0.942882 4.4739 0.89285 4.59598 0.894574 4.72257C0.896299 4.84917 0.949638 4.96992 1.04287 5.05829L3.85844 7.72752L3.19325 11.4966C3.17765 11.5843 3.18762 11.6745 3.22205 11.7569C3.25647 11.8394 3.31396 11.9108 3.388 11.9631C3.46204 12.0154 3.54967 12.0465 3.64095 12.0528C3.73222 12.0591 3.8235 12.0404 3.90442 11.9989L7.38517 10.2194L10.8659 11.9989C10.961 12.0481 11.0713 12.0645 11.1771 12.0466C11.4438 12.0019 11.6231 11.756 11.5771 11.4966L10.9119 7.72752L13.7275 5.05829C13.8041 4.98526 13.8547 4.88988 13.87 4.78555C13.9114 4.52474 13.7244 4.2833 13.4562 4.24455Z" fill="#FFA114"/>
</svg>
