<svg width="13" height="13" viewBox="0 0 13 13" fill="none" xmlns="http://www.w3.org/2000/svg">
<path d="M12.5617 4.24455L8.67013 3.69461L6.93052 0.26529C6.88301 0.171397 6.80484 0.0953886 6.70828 0.0491874C6.46612 -0.0670607 6.17184 0.0298127 6.05076 0.26529L4.31114 3.69461L0.419628 4.24455C0.31234 4.25946 0.214247 4.30864 0.139145 4.38316C0.0483506 4.4739 -0.00168123 4.59598 4.31392e-05 4.72257C0.00176751 4.84917 0.055107 4.96992 0.148341 5.05829L2.9639 7.72752L2.29871 11.4966C2.28312 11.5843 2.29309 11.6745 2.32752 11.7569C2.36194 11.8394 2.41943 11.9108 2.49347 11.9631C2.56751 12.0154 2.65514 12.0465 2.74641 12.0528C2.83769 12.0591 2.92896 12.0404 3.00989 11.9989L6.49064 10.2194L9.97139 11.9989C10.0664 12.0481 10.1768 12.0645 10.2825 12.0466C10.5492 12.0019 10.7285 11.756 10.6826 11.4966L10.0174 7.72752L12.8329 5.05829C12.9096 4.98526 12.9602 4.88988 12.9755 4.78555C13.0169 4.52474 12.8299 4.2833 12.5617 4.24455Z" fill="#FFA114"/>
</svg>
