<svg width="16" height="13" viewBox="0 0 16 13" fill="none" xmlns="http://www.w3.org/2000/svg">
<path d="M14.3718 3.22651C14.998 2.75663 15.5616 2.19277 16 1.53494C15.4364 1.78554 14.7789 1.97349 14.1213 2.03614C14.8102 1.62892 15.3112 1.00241 15.5616 0.219277C14.9354 0.595181 14.2153 0.877108 13.4951 1.03373C12.8689 0.375904 12.0235 0 11.0841 0C9.2681 0 7.79648 1.47229 7.79648 3.28916C7.79648 3.53976 7.82779 3.79036 7.89041 4.04096C5.16634 3.88434 2.72407 2.56867 1.09589 0.595181C0.81409 1.06506 0.657534 1.62892 0.657534 2.25542C0.657534 3.38313 1.22114 4.38554 2.12916 4.98072C1.59687 4.9494 1.06458 4.8241 0.626223 4.57349V4.60482C0.626223 6.20241 1.75342 7.51807 3.25636 7.83133C3.00587 7.89398 2.69276 7.95663 2.41096 7.95663C2.19178 7.95663 2.00391 7.9253 1.78474 7.89398C2.19178 9.20964 3.41292 10.1494 4.85323 10.1807C3.72603 11.0578 2.31703 11.5904 0.782779 11.5904C0.500978 11.5904 0.250489 11.559 0 11.5277C1.44031 12.4675 3.16243 13 5.0411 13C11.0841 13 14.3718 8.01928 14.3718 3.66506C14.3718 3.50843 14.3718 3.38313 14.3718 3.22651Z" fill="white"/>
</svg>
